<svg xmlns="http://www.w3.org/2000/svg" viewBox="0 0 62.585 50"><defs><style>.cls-1{fill:#e98024}</style></defs><g id="Group_43" data-name="Group 43" transform="translate(-79.01 -3.36)"><path id="Path_86" data-name="Path 86" class="cls-1" d="M102.354 44.982a13.838 13.838 0 01-7.454 3.454v4.924h-3.95v-4.871a14.506 14.506 0 01-7.386-3.135A12.83 12.83 0 0179.01 38.2l4.3-1.7a10.878 10.878 0 002.852 4.871 9.055 9.055 0 004.782 2.55V29.733l-.177-.053a22.256 22.256 0 01-7.687-4.694 9.1 9.1 0 01-2.6-6.624 9.434 9.434 0 011.275-4.729 10.42 10.42 0 013.649-3.7 12.63 12.63 0 015.544-1.753V3.36H94.9v4.924a11.726 11.726 0 019.617 7.634l-4.3 1.807a6.672 6.672 0 00-1.789-2.9 7.147 7.147 0 00-3.542-1.842v13.278a27.153 27.153 0 017.722 4.587 8.589 8.589 0 012.745 6.677 9.712 9.712 0 01-2.999 7.457zm-15.693-23.06a13.155 13.155 0 004.269 2.763V12.818a7.355 7.355 0 00-4.091 1.9 4.836 4.836 0 00-1.559 3.649 4.9 4.9 0 001.381 3.555zm12.38 19.784a5.542 5.542 0 001.559-4.074 4.906 4.906 0 00-1.417-3.542 14.212 14.212 0 00-4.3-2.745v12.433a7.568 7.568 0 004.159-2.072z"/><path id="Path_87" data-name="Path 87" class="cls-1" d="M105.765 52.093a15.811 15.811 0 01-5.563-4.157 16.043 16.043 0 01-3.422-6.865l5.017-2.015a12.519 12.519 0 003.716 6.529 9.308 9.308 0 006.466 2.456 10.013 10.013 0 007.305-2.75 9.6 9.6 0 002.813-7.179 9.9 9.9 0 00-2.771-7.2 9.661 9.661 0 00-7.2-2.855 9.8 9.8 0 00-4.555 1.113 9.577 9.577 0 00-3.485 3.044l-5.836-2.54 3.022-23.114h23.722V12h-19.04l-1.805 13.876.273.063a12.984 12.984 0 018.712-3.023 14.58 14.58 0 0112.742 7.384 15.984 15.984 0 01-.021 15.577 14.876 14.876 0 01-5.668 5.563 16.065 16.065 0 01-8.04 2.036 15.687 15.687 0 01-6.382-1.383z" transform="translate(13.704 -1.275)"/></g></svg>