<svg xmlns="http://www.w3.org/2000/svg" width="100%" height="102" viewBox="0 0 134.02 102"><defs><style>.orange-fill{fill:#e58025;}.a2ca854c-0a77-4b82-9dfc-82a8c19c182e,.f8033c56-b648-46df-80c4-9c6095ed25fb{fill:none;stroke:#e58025;stroke-miterlimit:10;stroke-width:2px;}.f8033c56-b648-46df-80c4-9c6095ed25fb{stroke-linecap:round;}</style></defs><title>commodities</title><g id="a4127aad-0599-4359-8b8f-7235ade18f29" data-name="Layer 2"><g id="b4edd701-9a36-4ce7-b595-5c5f90d92bf8" data-name="Layer 1"><path class="orange-fill" d="M40.23,29.36C46.05,36.49,51.86,43,54.12,51.65,55.76,57.91,50,65.5,43.18,67,35.82,68.53,28,63.61,26.64,56.4a12.66,12.66,0,0,1,.06-6.06C29.34,42.41,34.59,36.12,40.23,29.36ZM28.37,53.46c-.28,4.25,2,7.68,5.19,10.15.87.67,2.89,1.43,3.77.51.72-1,.62-1.9-1.1-3.32-3.17-2.61-4-5.88-3.13-9.74a47.88,47.88,0,0,0,1.28-4.87c.11-.9.75-1.82-.77-2.84-1.2-.49-2.05,0-2.76,1.52A30.35,30.35,0,0,0,28.37,53.46Z"/><path class="a2ca854c-0a77-4b82-9dfc-82a8c19c182e" d="M54.12,101H6.63a4.69,4.69,0,0,1-2.81-1h0q-.31-.24-.69-.57a6.52,6.52,0,0,1-1.77-7,6.81,6.81,0,0,1,2.32-3.14L5.9,87.58l.66-29.43C6,57.28,5,55.6,3.86,53.58a7.72,7.72,0,0,1,.24-7.94l1.31-2.06,0-29.43L3.53,9.7A6,6,0,0,1,4.1,3.9,6.51,6.51,0,0,1,9.52,1h60"/><path class="a2ca854c-0a77-4b82-9dfc-82a8c19c182e" d="M69.46,1h0a6.5,6.5,0,0,1,5.41,2.9,6,6,0,0,1,.61,5.71l-1.93,4.54V43.58l1.32,2.06a7.75,7.75,0,0,1,.24,7.94C74,55.64,73,57.34,72.41,58.19L72.26,71"/><path class="f8033c56-b648-46df-80c4-9c6095ed25fb" d="M54.12,101H6.63a4.69,4.69,0,0,1-2.81-1h0q-.31-.24-.69-.57a6.52,6.52,0,0,1-1.77-7,6.81,6.81,0,0,1,2.32-3.14L5.9,87.58l.66-29.43C6,57.28,5,55.6,3.86,53.58a7.72,7.72,0,0,1,.24-7.94l1.31-2.06,0-29.43L3.53,9.7A6,6,0,0,1,4.1,3.9,6.51,6.51,0,0,1,9.52,1h60"/><path class="f8033c56-b648-46df-80c4-9c6095ed25fb" d="M69.46,1h0a6.5,6.5,0,0,1,5.41,2.9,6,6,0,0,1,.61,5.71l-1.93,4.54V43.58l1.32,2.06a7.75,7.75,0,0,1,.24,7.94C74,55.64,73,57.34,72.41,58.19L72.26,71"/><path class="f8033c56-b648-46df-80c4-9c6095ed25fb" d="M104.08,68.54h-22a1.15,1.15,0,0,1-1.17-1.37l2.38-10.64a2.42,2.42,0,0,1,2.4-1.86h14.89a2.3,2.3,0,0,1,2.27,1.75l2.39,10.75A1.14,1.14,0,0,1,104.08,68.54Z"/><path class="f8033c56-b648-46df-80c4-9c6095ed25fb" d="M118,84.75H96a1.14,1.14,0,0,1-1.16-1.37l2.37-10.64a2.42,2.42,0,0,1,2.4-1.86h14.89a2.29,2.29,0,0,1,2.27,1.76l2.4,10.74A1.15,1.15,0,0,1,118,84.75Z"/><path class="f8033c56-b648-46df-80c4-9c6095ed25fb" d="M74.41,101h-22a1.16,1.16,0,0,1-1.16-1.38L53.61,89A2.43,2.43,0,0,1,56,87.12h14.9a2.31,2.31,0,0,1,2.27,1.76l2.39,10.74A1.16,1.16,0,0,1,74.41,101Z"/><path class="f8033c56-b648-46df-80c4-9c6095ed25fb" d="M88.64,84.87h-22a1.16,1.16,0,0,1-1.17-1.38l2.38-10.64A2.43,2.43,0,0,1,70.25,71H85.14a2.29,2.29,0,0,1,2.27,1.76l2.4,10.74A1.16,1.16,0,0,1,88.64,84.87Z"/><path class="f8033c56-b648-46df-80c4-9c6095ed25fb" d="M102.82,101h-22a1.16,1.16,0,0,1-1.16-1.38L82,89a2.43,2.43,0,0,1,2.4-1.86h14.9a2.31,2.31,0,0,1,2.27,1.76L104,99.62A1.16,1.16,0,0,1,102.82,101Z"/><path class="f8033c56-b648-46df-80c4-9c6095ed25fb" d="M131.83,101h-22a1.16,1.16,0,0,1-1.17-1.38L111,89a2.43,2.43,0,0,1,2.4-1.86h14.89a2.3,2.3,0,0,1,2.27,1.76L133,99.62A1.16,1.16,0,0,1,131.83,101Z"/></g></g></svg>