<svg xmlns="http://www.w3.org/2000/svg" width="90.22" height="102" viewBox="0 0 90.22 102"><defs><style>.b56a9027-5567-40ee-9855-acbd824c74f8,.orange-storke{fill:none;stroke:#e58025;stroke-linecap:round;stroke-width:2px;}.orange-storke{stroke-miterlimit:10;}.b56a9027-5567-40ee-9855-acbd824c74f8{stroke-linejoin:round;}</style></defs><title>forex</title><g id="b6338573-da59-4341-b884-e2ccfbf12836" data-name="Layer 2"><g id="b1845720-6705-4dd2-97fc-875f228f09fa" data-name="Layer 1"><path class="orange-storke" d="M20.93,63.77V36a31.48,31.48,0,0,1,20,0c9.34,3.24,18.48,3.82,28.2-.25v6.75c0,6.19-.1,12.39.09,18.57.07,2.32-.84,3.27-2.82,4.16-6,2.7-12.14,3.44-18.32,1C39.32,62.81,30.55,60.55,20.93,63.77ZM39.51,50.24a6.07,6.07,0,1,0,12.13.17,6.07,6.07,0,1,0-12.13-.17Z"/><path class="orange-storke" d="M35.87,93.88A44.06,44.06,0,0,1,33.65,8.23"/><polyline class="b56a9027-5567-40ee-9855-acbd824c74f8" points="27.65 19.73 35 8.22 23.7 1"/><path class="orange-storke" d="M35.87,93.88A44.06,44.06,0,0,1,33.65,8.23"/><path class="orange-storke" d="M35.87,93.88A44.06,44.06,0,0,1,33.65,8.23"/><polyline class="orange-storke" points="27.65 19.73 35 8.22 23.7 1"/><path class="orange-storke" d="M53.08,6.67A44.06,44.06,0,0,1,55,93"/><polyline class="orange-storke" points="61.69 82 53.94 93.25 65.19 101"/></g></g></svg>