<svg xmlns="http://www.w3.org/2000/svg" width="96.45" height="102" viewBox="0 0 96.45 102"><defs><style>.af47bb09-dae4-492f-b7c0-43584cce57dd{fill:none;stroke:#e58025;stroke-linecap:round;stroke-linejoin:round;stroke-width:2px;}</style></defs><title>indices</title><g id="b511c397-ef1b-457d-ad90-8fc72a0d9ccf" data-name="Layer 2"><g id="b7b053fe-b536-4361-b995-d0985da9df5d" data-name="Layer 1"><polyline class="af47bb09-dae4-492f-b7c0-43584cce57dd" points="1 60.13 36.03 25.1 53.55 42.61 94.42 1.74"/><path class="af47bb09-dae4-492f-b7c0-43584cce57dd" d="M26.35,66H45.71a2,2,0,0,1,2,2v33H24.35V68A2,2,0,0,1,26.35,66Z"/><path class="af47bb09-dae4-492f-b7c0-43584cce57dd" d="M3,83.48H22.35a2,2,0,0,1,2,2V101H1V85.48A2,2,0,0,1,3,83.48Z"/><path class="af47bb09-dae4-492f-b7c0-43584cce57dd" d="M49.71,77.65H69.06a2,2,0,0,1,2,2V101H47.71V79.65A2,2,0,0,1,49.71,77.65Z"/><path class="af47bb09-dae4-492f-b7c0-43584cce57dd" d="M73.06,48.45H92.42a2,2,0,0,1,2,2V101H71.06V50.45A2,2,0,0,1,73.06,48.45Z"/><polyline class="af47bb09-dae4-492f-b7c0-43584cce57dd" points="95.45 15.19 95.45 1 81.26 1"/><polyline class="af47bb09-dae4-492f-b7c0-43584cce57dd" points="1 60.13 36.03 25.1 53.55 42.61 94.42 1.74"/><path class="af47bb09-dae4-492f-b7c0-43584cce57dd" d="M26.35,66H45.71a2,2,0,0,1,2,2v33H24.35V68A2,2,0,0,1,26.35,66Z"/><path class="af47bb09-dae4-492f-b7c0-43584cce57dd" d="M3,83.48H22.35a2,2,0,0,1,2,2V101H1V85.48A2,2,0,0,1,3,83.48Z"/><path class="af47bb09-dae4-492f-b7c0-43584cce57dd" d="M49.71,77.65H69.06a2,2,0,0,1,2,2V101H47.71V79.65A2,2,0,0,1,49.71,77.65Z"/><path class="af47bb09-dae4-492f-b7c0-43584cce57dd" d="M73.06,48.45H92.42a2,2,0,0,1,2,2V101H71.06V50.45A2,2,0,0,1,73.06,48.45Z"/><polyline class="af47bb09-dae4-492f-b7c0-43584cce57dd" points="95.45 15.19 95.45 1 81.26 1"/></g></g></svg>